<svg width="30" height="30" viewBox="0 0 30 30" fill="none" xmlns="http://www.w3.org/2000/svg">
<path d="M3.76596 7.53192C5.84584 7.53192 7.53192 5.84584 7.53192 3.76596C7.53192 1.68608 5.84584 0 3.76596 0C1.68608 0 0 1.68608 0 3.76596C0 5.84584 1.68608 7.53192 3.76596 7.53192Z" fill="#919193"/>
<path d="M15 7.53192C17.0799 7.53192 18.766 5.84584 18.766 3.76596C18.766 1.68608 17.0799 0 15 0C12.9201 0 11.2341 1.68608 11.2341 3.76596C11.2341 5.84584 12.9201 7.53192 15 7.53192Z" fill="#919193"/>
<path d="M26.234 7.53192C28.3139 7.53192 30 5.84584 30 3.76596C30 1.68608 28.3139 0 26.234 0C24.1542 0 22.4681 1.68608 22.4681 3.76596C22.4681 5.84584 24.1542 7.53192 26.234 7.53192Z" fill="#919193"/>
<path d="M3.76596 30.0001C5.84584 30.0001 7.53192 28.314 7.53192 26.2341C7.53192 24.1542 5.84584 22.4681 3.76596 22.4681C1.68608 22.4681 0 24.1542 0 26.2341C0 28.314 1.68608 30.0001 3.76596 30.0001Z" fill="#919193"/>
<path d="M15 30.0002C17.0799 30.0002 18.766 28.3141 18.766 26.2342C18.766 24.1543 17.0799 22.4683 15 22.4683C12.9201 22.4683 11.2341 24.1543 11.2341 26.2342C11.2341 28.3141 12.9201 30.0002 15 30.0002Z" fill="#919193"/>
<path d="M26.234 30.0002C28.3139 30.0002 30 28.3141 30 26.2342C30 24.1543 28.3139 22.4683 26.234 22.4683C24.1542 22.4683 22.4681 24.1543 22.4681 26.2342C22.4681 28.3141 24.1542 30.0002 26.234 30.0002Z" fill="#919193"/>
<path d="M3.76596 18.766C5.84584 18.766 7.53192 17.08 7.53192 15.0001C7.53192 12.9202 5.84584 11.2341 3.76596 11.2341C1.68608 11.2341 0 12.9202 0 15.0001C0 17.08 1.68608 18.766 3.76596 18.766Z" fill="#919193"/>
<path d="M15 18.766C17.0799 18.766 18.766 17.08 18.766 15.0001C18.766 12.9202 17.0799 11.2341 15 11.2341C12.9201 11.2341 11.2341 12.9202 11.2341 15.0001C11.2341 17.08 12.9201 18.766 15 18.766Z" fill="#919193"/>
<path d="M26.234 18.766C28.3139 18.766 30 17.08 30 15.0001C30 12.9202 28.3139 11.2341 26.234 11.2341C24.1542 11.2341 22.4681 12.9202 22.4681 15.0001C22.4681 17.08 24.1542 18.766 26.234 18.766Z" fill="#919193"/>
</svg>
