<svg width="11" height="19" viewBox="0 0 11 19" fill="none" xmlns="http://www.w3.org/2000/svg">
<path d="M5.04183 -2.20378e-07C7.8285 -9.85692e-08 10.0835 2.255 10.0835 5.04167L10.0835 14.6667C10.0835 16.6925 8.44266 18.3333 6.41683 18.3333C4.391 18.3333 2.75016 16.6925 2.75016 14.6667L2.75016 6.875C2.75016 5.61 3.77683 4.58333 5.04183 4.58333C6.30683 4.58333 7.3335 5.61 7.3335 6.875L7.3335 13.75L5.50016 13.75L5.50016 6.7925C5.50016 6.28833 4.5835 6.28833 4.5835 6.7925L4.5835 14.6667C4.5835 15.675 5.4085 16.5 6.41683 16.5C7.42516 16.5 8.25016 15.675 8.25016 14.6667L8.25016 5.04167C8.25016 3.2725 6.811 1.83333 5.04183 1.83333C3.27266 1.83333 1.8335 3.2725 1.8335 5.04167L1.8335 13.75L0.000162477 13.75L0.000162858 5.04167C0.00016298 2.255 2.25516 -3.42187e-07 5.04183 -2.20378e-07Z" fill="#A6A0A0"/>
</svg>
