<svg width="18" height="18" viewBox="0 0 18 18" fill="none" xmlns="http://www.w3.org/2000/svg">
<path fill-rule="evenodd" clip-rule="evenodd" d="M9 0C4.06452 0 0 4.06452 0 9C0 13.9355 4.06452 18 9 18C13.9355 18 18 13.9355 18 9C18 4.06452 13.8629 0 9 0ZM9 16.8387C4.71774 16.8387 1.16129 13.2823 1.16129 9C1.16129 4.71774 4.71774 1.16129 9 1.16129C13.2823 1.16129 16.8387 4.71774 16.8387 9C16.8387 13.2823 13.2823 16.8387 9 16.8387ZM9.79861 13.2097C9.79861 13.5726 9.50829 13.9355 9.0728 13.9355H8.85506C8.49216 13.9355 8.12926 13.6451 8.12926 13.2097V7.18545C8.12926 6.82255 8.41958 6.45965 8.85506 6.45965H9.0728C9.43571 6.45965 9.79861 6.74997 9.79861 7.18545V13.2097ZM9.79823 4.86286C9.79823 5.30379 9.44078 5.66125 8.99984 5.66125C8.5589 5.66125 8.20145 5.30379 8.20145 4.86286C8.20145 4.42192 8.5589 4.06447 8.99984 4.06447C9.44078 4.06447 9.79823 4.42192 9.79823 4.86286Z" fill="white" fill-opacity="0.5"/>
</svg>
