<svg width="38" height="38" viewBox="0 0 38 38" fill="none" xmlns="http://www.w3.org/2000/svg">
<path d="M0 18.9889C0 16.643 1.8685 14.7397 4.17153 14.7397C6.47456 14.7397 8.34305 16.643 8.34305 18.9889C8.34305 21.3349 6.47456 23.2382 4.17153 23.2382C1.8685 23.2382 0 21.3349 0 18.9889ZM33.8285 23.2382C36.1315 23.2382 38 21.3349 38 18.9889C38 16.643 36.1315 14.7397 33.8285 14.7397C31.5254 14.7397 29.6569 16.643 29.6569 18.9889C29.6569 21.3349 31.5254 23.2382 33.8285 23.2382ZM19.0109 23.2382C21.3139 23.2382 23.1824 21.3349 23.1824 18.9889C23.1824 16.643 21.3139 14.7397 19.0109 14.7397C16.7078 14.7397 14.8393 16.643 14.8393 18.9889C14.8393 21.3349 16.7078 23.2382 19.0109 23.2382ZM4.17153 8.49854C6.47456 8.49854 8.34305 6.59522 8.34305 4.24927C8.34305 1.90332 6.47456 0 4.17153 0C1.8685 0 0 1.90332 0 4.24927C0 6.59522 1.8685 8.49854 4.17153 8.49854ZM33.8285 8.49854C36.1315 8.49854 38 6.59522 38 4.24927C38 1.90332 36.1315 0 33.8285 0C31.5254 0 29.6569 1.90332 29.6569 4.24927C29.6569 6.59522 31.5254 8.49854 33.8285 8.49854ZM19.0109 8.49854C21.3139 8.49854 23.1824 6.59522 23.1824 4.24927C23.1824 1.90332 21.3139 0 19.0109 0C16.7078 0 14.8393 1.90332 14.8393 4.24927C14.8393 6.59522 16.7078 8.49854 19.0109 8.49854ZM4.17153 38C6.47456 38 8.34305 36.0967 8.34305 33.7507C8.34305 31.4048 6.47456 29.5015 4.17153 29.5015C1.8685 29.5015 0 31.4048 0 33.7507C0 36.0967 1.8685 38 4.17153 38ZM19.0109 38C21.3139 38 23.1824 36.0967 23.1824 33.7507C23.1824 31.4048 21.3139 29.5015 19.0109 29.5015C16.7078 29.5015 14.8393 31.4048 14.8393 33.7507C14.8393 36.0967 16.7078 38 19.0109 38Z" fill="#181C23"/>
<path d="M33.8285 38C36.1315 38 38 36.0967 38 33.7507C38 31.4048 36.1315 29.5015 33.8285 29.5015C31.5254 29.5015 29.6569 31.4048 29.6569 33.7507C29.6569 36.0967 31.5254 38 33.8285 38Z" fill="#181C23"/>
</svg>
