<svg width="301" height="26" viewBox="0 0 301 26" fill="none" xmlns="http://www.w3.org/2000/svg">
<path d="M9.5 15.3636H14.4091L16.1818 17.5909L19.1818 21L23.0909 25.7273H17.5L14.7273 22.5L12.8636 19.8182L9.5 15.3636ZM23.0455 12.3636C23.0455 14.9545 22.5417 17.1402 21.5341 18.9205C20.5265 20.6932 19.1667 22.0379 17.4545 22.9545C15.7424 23.8636 13.8333 24.3182 11.7273 24.3182C9.60606 24.3182 7.68939 23.8598 5.97727 22.9432C4.27273 22.0189 2.91667 20.6705 1.90909 18.8977C0.909091 17.1174 0.409091 14.9394 0.409091 12.3636C0.409091 9.77273 0.909091 7.59091 1.90909 5.81818C2.91667 4.03788 4.27273 2.69318 5.97727 1.78409C7.68939 0.867423 9.60606 0.40909 11.7273 0.40909C13.8333 0.40909 15.7424 0.867423 17.4545 1.78409C19.1667 2.69318 20.5265 4.03788 21.5341 5.81818C22.5417 7.59091 23.0455 9.77273 23.0455 12.3636ZM16.5455 12.3636C16.5455 10.9697 16.3598 9.79545 15.9886 8.84091C15.625 7.87879 15.0833 7.15151 14.3636 6.65909C13.6515 6.15909 12.7727 5.90909 11.7273 5.90909C10.6818 5.90909 9.79924 6.15909 9.07955 6.65909C8.36742 7.15151 7.82576 7.87879 7.45455 8.84091C7.09091 9.79545 6.90909 10.9697 6.90909 12.3636C6.90909 13.7576 7.09091 14.9356 7.45455 15.8977C7.82576 16.8523 8.36742 17.5795 9.07955 18.0795C9.79924 18.572 10.6818 18.8182 11.7273 18.8182C12.7727 18.8182 13.6515 18.572 14.3636 18.0795C15.0833 17.5795 15.625 16.8523 15.9886 15.8977C16.3598 14.9356 16.5455 13.7576 16.5455 12.3636ZM39.5455 10V14.7273H28.6364V10H39.5455ZM51.233 24H44.4148L52.0966 0.727272H60.733L68.4148 24H61.5966L56.5057 7.13636H56.3239L51.233 24ZM49.9602 14.8182H62.7784V19.5455H49.9602V14.8182ZM72.6562 24V0.727272H82.7017C84.429 0.727272 85.9403 1.06818 87.2358 1.75C88.5313 2.43182 89.5388 3.39015 90.2585 4.625C90.9782 5.85985 91.3381 7.30303 91.3381 8.95455C91.3381 10.6212 90.9669 12.0644 90.2244 13.2841C89.4896 14.5038 88.4555 15.4432 87.1222 16.1023C85.7964 16.7614 84.2472 17.0909 82.4744 17.0909H76.4744V12.1818H81.2017C81.9441 12.1818 82.5767 12.053 83.0994 11.7955C83.6297 11.5303 84.035 11.1553 84.3153 10.6705C84.6032 10.1856 84.7472 9.61364 84.7472 8.95455C84.7472 8.28788 84.6032 7.7197 84.3153 7.25C84.035 6.77273 83.6297 6.40909 83.0994 6.15909C82.5767 5.90151 81.9441 5.77273 81.2017 5.77273H78.9744V24H72.6562ZM95.6562 24V0.727272H105.702C107.429 0.727272 108.94 1.06818 110.236 1.75C111.531 2.43182 112.539 3.39015 113.259 4.625C113.978 5.85985 114.338 7.30303 114.338 8.95455C114.338 10.6212 113.967 12.0644 113.224 13.2841C112.49 14.5038 111.455 15.4432 110.122 16.1023C108.796 16.7614 107.247 17.0909 105.474 17.0909H99.4744V12.1818H104.202C104.944 12.1818 105.577 12.053 106.099 11.7955C106.63 11.5303 107.035 11.1553 107.315 10.6705C107.603 10.1856 107.747 9.61364 107.747 8.95455C107.747 8.28788 107.603 7.7197 107.315 7.25C107.035 6.77273 106.63 6.40909 106.099 6.15909C105.577 5.90151 104.944 5.77273 104.202 5.77273H101.974V24H95.6562ZM131.202 8C131.141 7.24242 130.857 6.65151 130.349 6.22727C129.849 5.80303 129.088 5.59091 128.065 5.59091C127.414 5.59091 126.88 5.67045 126.463 5.82954C126.054 5.98106 125.751 6.18939 125.554 6.45454C125.357 6.7197 125.255 7.02273 125.247 7.36364C125.232 7.64394 125.281 7.89773 125.395 8.125C125.516 8.3447 125.705 8.54545 125.963 8.72727C126.221 8.90151 126.55 9.06061 126.952 9.20455C127.353 9.34848 127.83 9.47727 128.384 9.59091L130.293 10C131.58 10.2727 132.683 10.6326 133.599 11.0795C134.516 11.5265 135.266 12.053 135.849 12.6591C136.433 13.2576 136.861 13.9318 137.134 14.6818C137.414 15.4318 137.558 16.25 137.565 17.1364C137.558 18.6667 137.175 19.9621 136.418 21.0227C135.66 22.0833 134.577 22.8902 133.168 23.4432C131.766 23.9962 130.08 24.2727 128.111 24.2727C126.088 24.2727 124.323 23.9735 122.815 23.375C121.315 22.7765 120.149 21.8561 119.315 20.6136C118.49 19.3636 118.073 17.7652 118.065 15.8182H124.065C124.103 16.5303 124.281 17.1288 124.599 17.6136C124.918 18.0985 125.365 18.4659 125.94 18.7159C126.524 18.9659 127.217 19.0909 128.02 19.0909C128.694 19.0909 129.259 19.0076 129.713 18.8409C130.168 18.6742 130.512 18.4432 130.747 18.1477C130.982 17.8523 131.103 17.5152 131.111 17.1364C131.103 16.7803 130.986 16.4697 130.759 16.2045C130.539 15.9318 130.175 15.6894 129.668 15.4773C129.16 15.2576 128.474 15.053 127.611 14.8636L125.293 14.3636C123.232 13.9167 121.607 13.1705 120.418 12.125C119.236 11.072 118.649 9.63636 118.656 7.81818C118.649 6.34091 119.043 5.04924 119.838 3.94318C120.641 2.82954 121.751 1.96212 123.168 1.34091C124.592 0.719696 126.224 0.40909 128.065 0.40909C129.944 0.40909 131.569 0.723484 132.94 1.35227C134.312 1.98106 135.368 2.86742 136.111 4.01136C136.861 5.14773 137.24 6.47727 137.247 8H131.202Z" fill="white"/>
<path d="M150.344 24V0.727272H156.662V18.9091H166.071V24H150.344ZM176.943 0.727272V24H170.625V0.727272H176.943ZM181.938 24V0.727272H192.028C193.801 0.727272 195.29 0.965909 196.494 1.44318C197.706 1.92045 198.619 2.5947 199.233 3.46591C199.854 4.33712 200.165 5.36364 200.165 6.54545C200.165 7.40151 199.975 8.18182 199.597 8.88636C199.225 9.59091 198.703 10.1818 198.028 10.6591C197.354 11.1288 196.566 11.4545 195.665 11.6364V11.8636C196.665 11.9015 197.574 12.1553 198.392 12.625C199.21 13.0871 199.862 13.7273 200.347 14.5455C200.831 15.3561 201.074 16.3106 201.074 17.4091C201.074 18.6818 200.741 19.8144 200.074 20.8068C199.415 21.7992 198.475 22.5795 197.256 23.1477C196.036 23.7159 194.581 24 192.892 24H181.938ZM188.256 18.9545H191.21C192.271 18.9545 193.066 18.7576 193.597 18.3636C194.127 17.9621 194.392 17.3712 194.392 16.5909C194.392 16.0455 194.267 15.5833 194.017 15.2045C193.767 14.8258 193.411 14.5379 192.949 14.3409C192.494 14.1439 191.945 14.0455 191.301 14.0455H188.256V18.9545ZM188.256 10.1364H190.847C191.4 10.1364 191.888 10.0492 192.312 9.875C192.737 9.70076 193.066 9.45076 193.301 9.125C193.544 8.79167 193.665 8.38636 193.665 7.90909C193.665 7.18939 193.407 6.64015 192.892 6.26136C192.377 5.875 191.725 5.68182 190.938 5.68182H188.256V10.1364ZM205.312 24V0.727272H215.358C217.085 0.727272 218.597 1.04167 219.892 1.67045C221.188 2.29924 222.195 3.20455 222.915 4.38636C223.634 5.56818 223.994 6.98485 223.994 8.63636C223.994 10.303 223.623 11.7083 222.881 12.8523C222.146 13.9962 221.112 14.8598 219.778 15.4432C218.453 16.0265 216.903 16.3182 215.131 16.3182H209.131V11.4091H213.858C214.6 11.4091 215.233 11.3182 215.756 11.1364C216.286 10.947 216.691 10.6477 216.972 10.2386C217.259 9.82955 217.403 9.29545 217.403 8.63636C217.403 7.9697 217.259 7.42803 216.972 7.01136C216.691 6.58712 216.286 6.27651 215.756 6.07954C215.233 5.875 214.6 5.77273 213.858 5.77273H211.631V24H205.312ZM218.949 13.3182L224.767 24H217.903L212.222 13.3182H218.949ZM234.733 24H227.915L235.597 0.727272H244.233L251.915 24H245.097L240.006 7.13636H239.824L234.733 24ZM233.46 14.8182H246.278V19.5455H233.46V14.8182ZM256.156 24V0.727272H266.202C267.929 0.727272 269.44 1.04167 270.736 1.67045C272.031 2.29924 273.039 3.20455 273.759 4.38636C274.478 5.56818 274.838 6.98485 274.838 8.63636C274.838 10.303 274.467 11.7083 273.724 12.8523C272.99 13.9962 271.955 14.8598 270.622 15.4432C269.296 16.0265 267.747 16.3182 265.974 16.3182H259.974V11.4091H264.702C265.444 11.4091 266.077 11.3182 266.599 11.1364C267.13 10.947 267.535 10.6477 267.815 10.2386C268.103 9.82955 268.247 9.29545 268.247 8.63636C268.247 7.9697 268.103 7.42803 267.815 7.01136C267.535 6.58712 267.13 6.27651 266.599 6.07954C266.077 5.875 265.444 5.77273 264.702 5.77273H262.474V24H256.156ZM269.793 13.3182L275.611 24H268.747L263.065 13.3182H269.793ZM277.483 0.727272H284.528L289.074 10.1818H289.256L293.801 0.727272H300.847L292.301 16.6818V24H286.028V16.6818L277.483 0.727272Z" fill="#0091E1"/>
</svg>
