<svg width="20" height="16" viewBox="0 0 20 16" fill="none" xmlns="http://www.w3.org/2000/svg">
<path fill-rule="evenodd" clip-rule="evenodd" d="M2.645 5.81803H15C15.9471 5.81803 16.8557 6.20131 17.5257 6.88278C18.195 7.56497 18.5714 8.49007 18.5714 9.45445V10.909C18.5714 11.8734 18.195 12.7985 17.5257 13.4807C16.8557 14.1622 15.9471 14.5454 15 14.5454C12.0164 14.5454 8.57143 14.5454 8.57143 14.5454C8.17714 14.5454 7.85714 14.8713 7.85714 15.2727C7.85714 15.6742 8.17714 16 8.57143 16H15C16.3264 16 17.5979 15.464 18.5357 14.5091C19.4736 13.5541 20 12.2596 20 10.909C20 10.4268 20 9.93664 20 9.45445C20 8.10461 19.4736 6.80932 18.5357 5.8544C17.5979 4.9002 16.3264 4.36347 15 4.36347H2.645L6.17929 1.27906C6.47857 1.01797 6.51286 0.55832 6.25643 0.253588C6 -0.0511433 5.54857 -0.0860541 5.24929 0.175041L0.249285 4.53874C0.0914279 4.67692 0 4.87838 0 5.09075C0 5.30312 0.0914279 5.50458 0.249285 5.64276L5.24929 10.0065C5.54857 10.2676 6 10.2326 6.25643 9.92791C6.51286 9.62318 6.47857 9.16353 6.17929 8.90244L2.645 5.81803Z" fill="white" fill-opacity="0.5"/>
</svg>
